<?xml version="1.0" encoding="utf-8"?>
<!-- Generator: Adobe Illustrator 27.7.0, SVG Export Plug-In . SVG Version: 6.00 Build 0)  -->
<svg version="1.1" id="Layer_1" xmlns="http://www.w3.org/2000/svg" xmlns:xlink="http://www.w3.org/1999/xlink" x="0px" y="0px"
	 viewBox="0 0 1920 1080" style="enable-background:new 0 0 1920 1080;" xml:space="preserve">
<style type="text/css">
	.st0{fill:#FFFFFF;}
	.st1{fill:#919191;}
</style>
<rect class="st0" width="1920" height="1080"/>
<ellipse class="st1" cx="360.5" cy="346" rx="44.5" ry="45"/>
<circle class="st1" cx="505" cy="346" r="45"/>
<ellipse class="st1" cx="648.5" cy="346" rx="44.5" ry="45"/>
<circle class="st1" cx="921" cy="346" r="45"/>
<ellipse class="st1" cx="784.5" cy="346" rx="44.5" ry="45"/>
<ellipse class="st1" cx="1064.5" cy="346" rx="45.5" ry="45"/>
<ellipse class="st1" cx="1350.5" cy="346" rx="45.5" ry="45"/>
<ellipse class="st1" cx="1208.5" cy="346" rx="44.5" ry="45"/>
<circle class="st1" cx="1499" cy="346" r="45"/>
<ellipse class="st1" cx="360.5" cy="600" rx="44" ry="44.5"/>
<ellipse class="st1" cx="360.5" cy="600" rx="44.5" ry="45"/>
<ellipse class="st1" cx="497.5" cy="604" rx="45.5" ry="45"/>
<circle class="st1" cx="637" cy="604" r="45"/>
<circle class="st1" cx="921" cy="604" r="45"/>
<ellipse class="st1" cx="784.5" cy="601" rx="44.5" ry="45"/>
<ellipse class="st1" cx="1064.5" cy="604" rx="45.5" ry="45"/>
<ellipse class="st1" cx="1350.5" cy="604" rx="45.5" ry="45"/>
<ellipse class="st1" cx="1495.5" cy="601" rx="45.5" ry="45"/>
<ellipse class="st1" cx="1208.5" cy="604" rx="44.5" ry="45"/>
<ellipse class="st1" cx="430" cy="475.5" rx="45" ry="45.5"/>
<ellipse class="st1" cx="572.5" cy="475.5" rx="44.5" ry="45.5"/>
<ellipse class="st1" cx="720" cy="475.5" rx="45" ry="45.5"/>
<ellipse class="st1" cx="1005" cy="475.5" rx="45" ry="45.5"/>
<ellipse class="st1" cx="1291.5" cy="475.5" rx="44.5" ry="45.5"/>
<circle class="st1" cx="862.5" cy="475.5" r="45.5"/>
<circle class="st1" cx="1148.5" cy="475.5" r="45.5"/>
<ellipse class="st1" cx="1429" cy="475.5" rx="45" ry="45.5"/>
<ellipse class="st1" cx="429.5" cy="731" rx="44.5" ry="45"/>
<ellipse class="st1" cx="565.5" cy="733.5" rx="44.5" ry="45.5"/>
<ellipse class="st1" cx="850.5" cy="733.5" rx="44.5" ry="45.5"/>
<ellipse class="st1" cx="1136.5" cy="733.5" rx="44.5" ry="45.5"/>
<ellipse class="st1" cx="1559.5" cy="733.5" rx="44.5" ry="45.5"/>
<ellipse class="st1" cx="708" cy="733.5" rx="45" ry="45.5"/>
<ellipse class="st1" cx="993" cy="733.5" rx="45" ry="45.5"/>
<ellipse class="st1" cx="1280" cy="733.5" rx="45" ry="45.5"/>
<ellipse class="st1" cx="1417" cy="733.5" rx="45" ry="45.5"/>
</svg>
