<?xml version="1.0" encoding="utf-8"?>
<!-- Generator: Adobe Illustrator 27.7.0, SVG Export Plug-In . SVG Version: 6.00 Build 0)  -->
<svg version="1.1" id="Layer_1" xmlns="http://www.w3.org/2000/svg" xmlns:xlink="http://www.w3.org/1999/xlink" x="0px" y="0px"
	 viewBox="0 0 1920 1078" style="enable-background:new 0 0 1920 1078;" xml:space="preserve">
<style type="text/css">
	.st0{fill:#C7C7C7;}
</style>
<g>
	<g transform="matrix(1, 0, 0, 1, 74, -1)">
		<ellipse id="image3-2" class="st0" cx="286.5" cy="346" rx="44" ry="44.5"/>
	</g>
	<circle id="image4" class="st0" cx="505" cy="345" r="44.5"/>
	<ellipse id="image5" class="st0" cx="648.5" cy="345" rx="44" ry="44.5"/>
	<circle id="image7" class="st0" cx="921" cy="345" r="44.5"/>
	<ellipse id="image6" class="st0" cx="784.5" cy="345" rx="44" ry="44.5"/>
	<ellipse id="image8" class="st0" cx="1064.5" cy="345" rx="45" ry="44.5"/>
	<ellipse id="image10" class="st0" cx="1350.5" cy="345" rx="45" ry="44.5"/>
	<ellipse id="image9" class="st0" cx="1208.5" cy="345" rx="44" ry="44.5"/>
	<circle id="image11" class="st0" cx="1499" cy="345" r="44.5"/>
	<ellipse id="image20" class="st0" cx="360.5" cy="599" rx="44" ry="44.5"/>
	<ellipse id="image21" class="st0" cx="497.5" cy="603" rx="45" ry="44.5"/>
	<circle id="image22" class="st0" cx="637" cy="603" r="44.5"/>
	<circle id="image24" class="st0" cx="921" cy="603" r="44.5"/>
	<ellipse id="image23" class="st0" cx="784.5" cy="600" rx="44" ry="44.5"/>
	<ellipse id="image25" class="st0" cx="1064.5" cy="603" rx="45" ry="44.5"/>
	<ellipse id="image27" class="st0" cx="1350.5" cy="603" rx="45" ry="44.5"/>
	<ellipse id="image28" class="st0" cx="1495.5" cy="600" rx="45" ry="44.5"/>
	<ellipse id="image26" class="st0" cx="1208.5" cy="603" rx="44" ry="44.5"/>
	<ellipse id="image12" class="st0" cx="430" cy="474.5" rx="44.5" ry="45"/>
	<ellipse id="image13" class="st0" cx="572.5" cy="474.5" rx="44" ry="45"/>
	<ellipse id="image14" class="st0" cx="720" cy="474.5" rx="44.5" ry="45"/>
	<ellipse id="image16" class="st0" cx="1005" cy="474.5" rx="44.5" ry="45"/>
	<ellipse id="image18_00000060031309851014255430000012726904664919240618_" class="st0" cx="1291.5" cy="474.5" rx="44" ry="45"/>
	<circle id="image15" class="st0" cx="862.5" cy="474.5" r="45"/>
	<circle id="image17" class="st0" cx="1148.5" cy="474.5" r="45"/>
	<ellipse id="image19" class="st0" cx="1429" cy="474.5" rx="44.5" ry="45"/>
	<ellipse id="image29" class="st0" cx="429.5" cy="730" rx="44" ry="44.5"/>
	<ellipse id="image31" class="st0" cx="565.5" cy="732.5" rx="44" ry="45"/>
	<ellipse id="image33" class="st0" cx="850.5" cy="732.5" rx="44" ry="45"/>
	<ellipse id="image35" class="st0" cx="1136.5" cy="732.5" rx="44" ry="45"/>
	<ellipse id="image38" class="st0" cx="1559.5" cy="732.5" rx="44" ry="45"/>
	<ellipse id="image32" class="st0" cx="708" cy="732.5" rx="44.5" ry="45"/>
	<ellipse id="image34" class="st0" cx="993" cy="732.5" rx="44.5" ry="45"/>
	<ellipse id="image36" class="st0" cx="1280" cy="732.5" rx="44.5" ry="45"/>
	<ellipse id="image37" class="st0" cx="1417" cy="732.5" rx="44.5" ry="45"/>
</g>
</svg>
